# xmcd
#
# Track frame offsets:
#	150
#	19880
#	38245
#	58007
#	77775
#
# Disc length: 1070 seconds
#
# Revision: 1
# Processed by: cddbd v1.4PL0 Copyright (c) Steve Scherf et al.
# Submitted via: audiograbber 1.82.01
#
DISCID=39042c05
DTITLE=Ginuwine - In Those Jeans CDM
DYEAR=2003
DGENRE=R&B
TTITLE0=In Those Jeans (Album Version)
TTITLE1=In Those Jeans (Radio Edit)
TTITLE2=In Those Jeans (Instrumental)
TTITLE3=In Those Jeans (Acapella)
TTITLE4=In Those Jeans (Callout Hook)
EXTD=
EXTT0=
EXTT1=
EXTT2=
EXTT3=
EXTT4=
PLAYORDER=
